<?xml version="1.0" standalone="no"?>
<!DOCTYPE svg PUBLIC "-//W3C//DTD SVG 20010904//EN"
 "http://www.w3.org/TR/2001/REC-SVG-20010904/DTD/svg10.dtd">
<svg version="1.0" xmlns="http://www.w3.org/2000/svg"
 width="818.000000pt" height="286.000000pt" viewBox="0 0 818.000000 286.000000" fill="currentColor"
 preserveAspectRatio="xMidYMid meet">

<g transform="translate(0.000000,286.000000) scale(0.100000,-0.100000)"
 stroke="none">
<path d="M5373 2111 l-93 -14 0 -194 c0 -113 -4 -193 -9 -193 -5 0 -22 5 -38
11 -136 52 -315 14 -399 -85 -140 -164 -134 -485 12 -629 91 -90 192 -123 354
-114 86 5 257 31 268 41 1 2 1 270 0 597 l-3 594 -92 -14z m-125 -554 l32 -18
0 -234 c0 -176 -3 -236 -12 -242 -7 -4 -51 -7 -98 -7 -67 0 -94 5 -127 22 -75
39 -115 121 -115 242 -1 121 31 201 94 241 28 17 45 20 113 16 49 -2 93 -10
113 -20z"/>
<path d="M3158 2078 c-16 -17 -38 -48 -48 -67 l-19 -36 52 -54 c30 -31 44 -51
32 -46 -11 4 -39 14 -62 23 -23 9 -44 14 -47 12 -2 -3 -7 -21 -11 -41 -7 -36
-6 -37 74 -100 45 -34 80 -63 78 -65 -1 -1 -34 6 -72 17 -38 10 -75 19 -82 19
-9 0 -13 -21 -13 -73 l0 -73 108 -44 107 -45 -92 -3 c-51 -1 -93 -5 -93 -8 0
-3 14 -34 32 -69 35 -71 25 -66 173 -86 135 -18 138 -22 36 -48 -50 -13 -91
-27 -91 -31 0 -8 69 -67 111 -94 25 -16 36 -16 145 -2 66 8 120 13 122 11 2
-2 -24 -18 -58 -36 -34 -18 -57 -36 -52 -41 5 -5 36 -14 70 -21 33 -7 63 -15
66 -18 3 -3 -8 -56 -25 -117 -17 -61 -29 -117 -26 -124 2 -7 63 -53 135 -102
l130 -88 136 92 c75 51 136 98 136 104 0 6 -14 60 -30 119 -17 60 -28 112 -26
116 3 5 25 11 49 14 24 3 56 11 72 17 l29 11 -63 36 c-34 19 -61 36 -59 38 2
2 56 -3 121 -11 117 -15 118 -15 150 8 56 39 107 81 107 88 0 4 -43 18 -96 31
-110 27 -106 31 49 49 69 8 116 19 128 29 10 9 30 42 44 74 l25 57 -92 0 c-51
0 -88 4 -83 8 6 5 48 24 95 42 47 18 91 40 98 48 7 9 12 44 12 83 l0 66 -62
-17 c-129 -35 -128 -36 -34 36 87 67 88 68 81 103 -8 42 -14 53 -24 47 -4 -3
-32 -14 -62 -26 l-54 -21 53 53 52 54 -29 44 c-15 25 -40 56 -54 69 l-26 23
-59 -123 c-118 -248 -235 -422 -373 -554 l-83 -79 -17 41 c-23 54 -62 83 -111
83 -50 0 -81 -21 -103 -70 -10 -22 -23 -40 -30 -40 -20 0 -125 101 -189 184
-91 115 -158 227 -244 404 -40 83 -76 152 -79 152 -3 0 -18 -14 -35 -32z"/>
<path d="M976 1739 c-128 -19 -244 -100 -292 -204 -32 -70 -45 -171 -34 -263
23 -182 122 -287 291 -313 73 -11 110 -6 218 27 23 7 23 6 16 -47 -13 -101
-58 -148 -152 -158 -73 -8 -197 3 -254 23 -27 10 -46 11 -49 5 -13 -21 -32
-141 -24 -149 19 -19 162 -41 259 -41 264 -1 380 91 406 318 5 48 8 241 7 428
l-3 340 -80 16 c-107 21 -237 29 -309 18z m192 -163 c9 -5 12 -65 12 -216 l0
-209 -32 -17 c-42 -22 -145 -30 -191 -15 -45 15 -92 68 -106 118 -15 54 -13
151 4 209 16 55 74 119 121 134 32 11 174 8 192 -4z"/>
<path d="M1720 1734 c-41 -8 -78 -18 -82 -22 -6 -6 9 -141 16 -149 0 -1 28 5
61 13 33 7 92 14 130 14 115 0 174 -44 182 -137 l5 -48 -128 0 c-154 0 -215
-17 -281 -78 -65 -60 -85 -140 -62 -248 9 -41 21 -62 58 -99 67 -67 124 -84
276 -84 117 0 279 18 304 33 10 6 12 77 9 317 -4 341 -5 350 -70 415 -58 57
-128 82 -243 85 -62 2 -129 -3 -175 -12z m303 -471 c4 -2 7 -51 7 -108 l0
-104 -46 -7 c-52 -7 -134 0 -182 17 -38 13 -62 53 -62 102 0 59 41 94 130 110
27 5 140 -2 153 -10z"/>
<path d="M2660 1739 c-41 -5 -104 -17 -140 -27 l-65 -19 -3 -391 -2 -392 95 0
95 0 0 330 0 330 26 6 c29 8 211 0 235 -10 12 -5 18 8 30 74 18 92 25 83 -81
100 -73 11 -84 11 -190 -1z"/>
<path d="M5832 1736 c-107 -21 -101 -14 -88 -96 6 -39 14 -71 19 -71 4 -1 40
5 79 11 89 15 195 9 230 -14 34 -22 58 -74 58 -123 l0 -38 -132 0 c-125 0
-137 -2 -193 -28 -110 -52 -147 -107 -147 -222 1 -151 73 -229 237 -255 90
-15 273 -3 403 25 l22 5 0 253 c0 275 -9 358 -43 427 -26 51 -90 104 -145 120
-59 18 -219 21 -300 6z m291 -473 c4 -2 7 -51 7 -107 l0 -103 -31 -7 c-80 -16
-190 2 -226 36 -30 29 -38 76 -20 121 17 40 39 54 100 67 39 8 152 3 170 -7z"/>
</g>
</svg>
